<svg alt="VEGETALEMENT" height="37px" version="1.1" viewBox="0 0 181 37" width="181px" xmlns="http://www.w3.org/2000/svg" xmlns:xlink="http://www.w3.org/1999/xlink">
<title>8474B867-E4EC-4FD1-99EA-448196AAC5C0</title>
<g fill="none" fill-rule="evenodd" id="Homepage" stroke="none" stroke-width="1">
<g fill="#000105" id="Menu_VG_desktop" transform="translate(-630, -53)">
<g id="atome/header/menu-desktop" transform="translate(0, 39)">
<g id="logo/main/dark" transform="translate(630, 14)">
<path d="M73.4693362,0.181743158 C75.9449106,0.734627368 76.5396766,2.85824842 76.5396766,3.94772211 L76.5396766,6.30212211 L79.3534213,6.30212211 L79.3534213,7.55454316 L76.5396766,7.55454316 L76.5396766,24.6022484 L73.4693362,24.6022484 L73.4693362,7.58599579 L72.0174638,7.58599579 L72.0174638,6.33546947 L73.4693362,6.33546947 Z M87.4562936,5.82207158 C88.6894851,5.82207158 89.8162085,6.04375579 90.8050596,6.48181895 C91.8176553,6.92821895 92.6851021,7.55424 93.3825064,8.34282947 C94.0787617,9.12914526 94.6245064,10.0621137 95.0040383,11.1155874 C95.3828043,12.1698189 95.5804213,13.3123453 95.5915277,14.5105768 C95.603783,15.7539032 95.423783,18.1333137 95.0672298,19.1826189 C94.7068468,20.2444295 94.1791021,21.1868716 93.497783,21.9815242 C92.8153149,22.7818611 91.9597404,23.42304 90.9555702,23.8872505 C89.9548468,24.3507032 88.8051447,24.5905768 87.538634,24.6011874 L87.4628043,24.6019453 C86.2273149,24.6019453 85.0994426,24.3802611 84.1105915,23.9429558 C83.0991447,23.49504 82.2324638,22.8682611 81.5335277,22.0796716 C80.8357404,21.2922189 80.2907617,20.3592505 79.9123787,19.3057768 C79.512166,18.1969768 79.3271872,15.6546189 79.3172298,14.5397558 L79.3149319,14.2544084 L89.4393574,14.2544084 C89.9494851,14.2544084 91.2408894,14.2161347 91.8383362,13.3240926 C92.1175277,12.9080084 92.2075277,12.3384505 92.1255702,11.6980295 C92.0826766,11.3653137 91.5943787,10.1447242 91.1968468,9.47626105 C90.7679106,8.75057684 90.2275277,8.14767158 89.5891021,7.68270316 C88.9725064,7.23630316 88.2624638,7.01916632 87.4202936,7.01878737 C86.2851447,7.02901895 85.397017,7.37575579 84.6720383,8.07908211 C83.9056979,8.82257684 83.5276979,9.36219789 83.0110596,10.4353768 L79.8591447,10.4353768 C80.5837404,8.90291368 81.6955277,7.95440842 82.840634,7.15331368 C84.082634,6.28552421 85.6076553,5.83722947 87.3747191,5.82245053 Z M92.5395702,15.4492295 L82.4224213,15.53184 C82.4699106,16.5337768 82.606634,18.3364295 82.822634,19.0821979 C83.0662085,19.9098189 83.4093574,20.6605137 83.8413574,21.3119242 C84.2687617,21.9546189 84.8003362,22.47264 85.4211447,22.8527242 C86.0216553,23.2195453 86.7175277,23.4056084 87.4892298,23.4056084 L87.5282936,23.4052295 C88.3344638,23.3995453 89.0452723,23.2021137 89.6419532,22.8178611 C90.2459106,22.4286821 90.7686766,21.9011874 91.1949319,21.2482611 C91.6227191,20.5960926 91.9559106,19.8416084 92.1856979,19.0052716 C92.3852298,18.2708716 92.5100809,16.4792084 92.5395702,15.4492295 Z M177.253698,6.30212211 L177.253698,3.94772211 C177.253698,2.85824842 176.658549,0.734627368 174.183357,0.181743158 L174.183357,6.33546947 L172.731102,6.33546947 L172.731102,7.58599579 L174.183357,7.58599579 L174.183357,24.6022484 L177.253698,24.6022484 L177.253698,7.55454316 L180.067443,7.55454316 L180.067443,6.30212211 L177.253698,6.30212211 Z M97.5194043,0.181477895 L97.5194043,24.6023621 L100.589745,24.6023621 L100.589745,3.94745684 C100.589745,2.85836211 99.9945957,0.734362105 97.5194043,0.181477895 M41.1999319,20.7461558 C40.7652511,19.9712084 40.4408681,19.0984926 40.2363574,18.1530189 C40.0314638,17.2060295 39.9272936,16.2749558 39.9272936,15.3836716 C39.9272936,14.4946611 40.0314638,13.5704084 40.2363574,12.6363032 C40.4412511,11.7044716 40.7652511,10.8393347 41.1999319,10.0659032 C41.6376766,9.29247158 42.1753787,8.64674526 42.7961872,8.14805053 C43.4177617,7.65390316 44.1684,7.40304 45.0285702,7.40304 C45.8604,7.40304 46.6045277,7.65428211 47.2410383,8.14842947 C47.8779319,8.64977684 48.4213787,9.29474526 48.8568255,10.0659032 C49.2926553,10.8416084 49.6162723,11.7063663 49.820017,12.6363032 C50.0252936,13.5654821 50.1294638,14.4904926 50.1294638,15.3836716 C50.1294638,16.2791242 50.0252936,17.2109558 49.820017,18.1533979 C49.6170383,19.0969768 49.2930383,19.9693137 48.8568255,20.7461558 C48.4213787,21.5192084 47.8779319,22.1645558 47.2414213,22.6636295 C46.6091234,23.1577768 45.8642298,23.4082611 45.0285702,23.4082611 C44.1649532,23.4082611 43.4143149,23.1577768 42.7961872,22.6640084 C42.1749957,22.1675874 41.6376766,21.52224 41.1999319,20.7461558 M51.7253362,29.3581137 C50.9486553,28.7908295 49.981634,28.3421558 48.8514638,28.02384 C47.714783,27.7040084 46.4287404,27.5418189 45.0285702,27.5418189 C43.8026553,27.5418189 42.8524851,27.3837979 42.205634,27.0723032 C41.5626128,26.7596716 41.2504851,26.3943663 41.2504851,25.9551663 C41.2504851,25.5440084 41.5626128,25.1938611 42.205634,24.8850189 C42.855166,24.5712505 43.8045702,24.4128505 45.0285702,24.4128505 C46.3567404,24.4128505 47.5558468,24.1760084 48.5910383,23.7095242 C49.6269957,23.2449347 50.5185702,22.5954189 51.2424,21.7787874 C51.9578043,20.9648084 52.5184851,19.9988716 52.9075915,18.9071242 C53.2928681,17.8191663 53.4889532,16.6341979 53.4889532,15.3836716 C53.4889532,13.5848084 53.1040596,11.9276716 52.3449957,10.4600084 C51.6001021,9.02266105 50.8349106,8.32160842 49.9341447,7.77668211 L53.0772511,7.77668211 L53.0772511,6.39958737 L45.0285702,6.39958737 C43.7080596,6.39958737 42.5093362,6.63529263 41.4653362,7.10064 C40.4228681,7.57091368 39.5328255,8.22042947 38.8189532,9.03213474 C38.1001021,9.84762947 37.5390383,10.8063663 37.1518468,11.88144 C36.7642723,12.9515874 36.5681872,14.1301137 36.5681872,15.3836716 C36.5681872,16.3499874 36.6804,17.2848505 36.9021447,18.1613558 C37.1242723,19.0515032 37.4528681,19.8707874 37.8798894,20.5949558 C38.3095915,21.3232926 38.8426979,21.9720505 39.4642723,22.5234189 C40.0310809,23.0262821 40.6863574,23.4249347 41.4159319,23.7102821 C40.3194638,23.8883874 39.4650383,24.1710821 38.8744851,24.5519242 C38.2222723,24.9680084 37.8917617,25.4397979 37.8917617,25.9551663 C37.8917617,26.7073768 38.5389957,27.3360505 39.8154638,27.8229979 C41.072017,28.3031242 42.8260596,28.5467874 45.0285702,28.5467874 C45.9546128,28.5467874 46.7883574,28.6832084 47.5075915,28.95264 C48.2245277,29.2243453 48.8365277,29.6002611 49.3248255,30.0697768 C49.8119745,30.5419453 50.1715915,31.1077137 50.4247404,31.7413137 C50.8594213,32.8307874 51.4028681,35.4963032 51.4028681,35.4963032 L54.7631234,35.4963032 C54.7631234,35.4963032 54.0963574,32.3256505 53.5215064,31.3392505 C53.0937191,30.6056084 52.5043149,29.9307032 51.7253362,29.3581137 M170.545251,24.6023621 L171.959209,24.6023621 L171.959209,12.3706989 C171.959209,11.4892674 171.835123,10.6445937 171.590783,9.85827789 C171.342613,9.06589895 170.98223,8.36977263 170.519209,7.78846737 C170.053123,7.19920421 169.465634,6.72324632 168.773591,6.37347789 C168.082698,6.02484632 167.297209,5.84825684 166.437804,5.84825684 C164.973294,5.84825684 163.905166,6.18438316 163.076783,6.90779368 C162.018996,7.83545684 161.415038,8.83739368 161.175677,10.0632884 C161.143889,10.2304042 160.985719,10.9632884 160.985719,11.5157937 L161.009464,24.6050147 L164.117719,24.6050147 L164.117336,12.0610989 C164.163677,11.0493095 164.210017,10.67112 164.365506,10.0360042 C164.539762,9.32282526 164.718613,8.87377263 165.003549,8.43457263 C165.296528,7.97907789 165.593336,7.66000421 166.083166,7.34547789 C166.677932,6.96349895 167.722698,6.91878316 168.483677,7.45234105 C168.908017,7.74943579 169.298272,8.10754105 169.602357,8.57933053 C169.916017,9.06286737 170.152698,9.62977263 170.306272,10.2648884 C170.465209,10.9193305 170.545251,11.6279621 170.545251,12.3706989 L170.545251,24.6023621 Z M131.635877,24.6023621 L131.635877,12.3706989 C131.635877,11.6279621 131.713621,10.9193305 131.867962,10.2648884 C132.01694,9.62977263 132.247111,9.06286737 132.551962,8.57933053 C132.846855,8.10754105 133.226387,7.74943579 133.638472,7.45234105 C134.378004,6.91878316 135.57826,6.96349895 136.155791,7.34547789 C136.631834,7.66000421 136.919451,7.97907789 137.204387,8.43457263 C137.481281,8.87377263 137.65477,9.32282526 137.823664,10.0360042 C137.975323,10.67112 138.020515,11.0493095 138.06494,12.0610989 L138.064557,24.6050147 L140.8986,24.6050147 L140.921579,11.5157937 C140.921579,10.9632884 140.768004,10.2304042 140.737366,10.0632884 C140.504898,8.83739368 139.918174,7.83545684 138.890643,6.90779368 C138.086004,6.18438316 137.048515,5.84825684 135.625749,5.84825684 C134.790855,5.84825684 134.223664,6.02484632 133.552685,6.37347789 C132.880174,6.72324632 132.309919,7.19920421 131.856472,7.78846737 C131.448217,8.31634105 131.126515,8.94349895 130.889451,9.64682526 C130.652387,8.94349895 130.331068,8.31634105 129.92243,7.78846737 C129.469749,7.19920421 128.899111,6.72324632 128.226983,6.37347789 C127.556004,6.02484632 126.98843,5.84825684 126.153919,5.84825684 C124.731153,5.84825684 123.693664,6.18438316 122.888643,6.90779368 C121.861494,7.83545684 121.27477,8.83739368 121.041919,10.0632884 C121.011281,10.2304042 120.857323,10.9632884 120.857323,11.5157937 L120.879919,24.6050147 L123.714345,24.6050147 L123.713962,12.0610989 C123.759153,11.0493095 123.804345,10.67112 123.955238,10.0360042 C124.124515,9.32282526 124.298387,8.87377263 124.574515,8.43457263 C124.859451,7.97907789 125.147834,7.66000421 125.623494,7.34547789 C126.201409,6.96349895 127.401664,6.91878316 128.141196,7.45234105 C128.552898,7.74943579 128.932047,8.10754105 129.227706,8.57933053 C129.532557,9.06286737 129.761962,9.62977263 129.911706,10.2648884 C130.065664,10.9193305 130.143791,11.6279621 130.143791,12.3706989 L130.143791,24.6023621 L130.262515,24.6023621 L131.517153,24.6023621 L131.635877,24.6023621 Z M33.8286638,0 L33.8187064,0.0488842105 C33.7604936,0.333473684 32.7777702,2.74585263 31.9815574,3.83911579 C31.7054298,4.21768421 31.3393021,4.5792 30.8460255,4.88084211 C30.3535149,5.18021053 29.7418979,5.41553684 29.0291745,5.58227368 C28.3811745,5.73423158 27.6527489,5.81418947 26.8676426,5.82934737 C27.976366,5.86383158 28.9939404,6.08096842 29.8962383,6.48113684 C30.909217,6.93018947 31.7766638,7.55658947 32.4736851,8.34442105 C33.1703234,9.12997895 33.7160681,10.0633263 34.0944511,11.1175579 C34.4946638,12.2229474 34.6796426,14.7672 34.6896,15.8839579 L34.6918979,16.1700632 L24.4695763,16.1706264 C23.9074344,16.1775202 22.730436,16.2608099 22.1684936,17.1003789 C21.8900681,17.5164632 21.7993021,18.0867789 21.8812596,18.7260632 C21.9237702,19.0595368 22.4120681,20.2801263 22.809983,20.9482105 C23.2389191,21.6738947 23.7793021,22.2771789 24.4181106,22.7421474 C25.0347064,23.1881684 25.744366,23.4049263 26.5865362,23.4053053 C27.7216851,23.3954526 28.6090468,23.0487158 29.3347915,22.3453895 C30.1007489,21.6022737 30.4791319,21.0626526 30.9957702,19.9894737 L34.1476851,19.9894737 C33.4227064,21.5219368 32.3109191,22.4704421 31.1661957,23.2707789 C29.9241957,24.1393263 28.3987915,24.5872421 26.6321106,24.6024 L26.5501532,24.6027789 C25.3173447,24.6027789 24.1906213,24.3807158 23.2017702,23.9430316 C22.1891745,23.4962526 21.3221106,22.8702316 20.6243234,22.0820211 C19.9276851,21.2953263 19.3827064,20.3627368 19.0024085,19.3092632 C18.6236426,18.2538947 18.4260255,17.1117474 18.4153021,15.9131368 C18.4026638,14.6709474 18.5826638,12.2926737 18.9396,11.2414737 C19.2996,10.1792842 19.8376851,9.24555789 20.5094298,8.44218947 C21.0731745,7.76842105 22.4886638,6.57776842 23.3507489,6.17191579 C23.8084085,5.95629474 24.4705787,5.68951579 25.1794723,5.53755789 C26.4996,5.25486316 27.5861106,5.30223158 28.1850894,5.08623158 C28.6335574,4.9248 29.0276426,4.7448 29.3370894,4.49734737 C29.6450043,4.24837895 29.8656,3.94711579 30.0321957,3.61932632 C30.5212596,2.65604211 30.8153872,0.267157895 30.9138128,0.169389474 L30.9241532,0.159157895 L33.8286638,0 Z M19.3051915,5.8481583 L9.99995745,24.6023621 L9.82761702,24.6023621 L0,5.94754105 C3.86195745,5.30522526 5.17174468,7.95709895 5.53251064,8.72636211 C5.74558298,9.18210947 6.77479603,11.3518622 7.87141666,13.6518952 L8.32189598,14.5960697 C9.32287943,16.6925375 10.2951915,18.7181937 10.6762979,19.4831621 L17.298766,5.8481583 L19.3051915,5.8481583 Z M26.5225787,7.01810526 L26.4789191,7.01810526 C25.671983,7.02492632 24.9607915,7.22235789 24.3656426,7.60509474 C23.7593872,7.99654737 23.2366213,8.5248 22.8122809,9.17469474 C22.3844936,9.82648421 22.0513021,10.5809684 21.8211319,11.4184421 C21.6216,12.1532211 21.4971319,13.9032 21.4672596,14.9331789 L31.5844085,14.9331789 C31.5373021,13.9308632 31.4005787,12.0857684 31.1841957,11.3415158 C30.9410043,10.5150316 30.5982383,9.76433684 30.1654723,9.11103158 C29.7384511,8.46909474 29.2064936,7.95069474 28.5860681,7.57098947 C27.9847915,7.20416842 27.2900681,7.01810526 26.5225787,7.01810526 Z M58.0732851,14.9331789 C58.1046894,13.8971368 58.2291574,12.1441263 58.4260085,11.4192 C58.6554128,10.5828632 58.9886043,9.82837895 59.4167745,9.17658947 C59.8426468,8.52328421 60.3654128,7.99578947 60.9693702,7.60661053 C61.566434,7.22273684 62.2776255,7.02492632 63.0837957,7.01962105 L63.1220936,7.01924211 C63.8941787,7.01924211 64.5900511,7.20492632 65.1905617,7.57212632 C65.8113702,7.95183158 66.3429447,8.47023158 66.7707319,9.11292632 C67.2027319,9.76395789 67.5451149,10.5146526 67.7890723,11.3422737 C67.8208596,11.4517895 67.8503489,11.5855579 67.8786894,11.7344842 C68.0406894,12.5962105 68.1456255,14.0316632 68.1873702,14.8926316 L63.2484766,14.9331789 L58.0732851,14.9331789 Z M71.2956255,16.0237895 L71.2944766,15.8847158 C71.2933277,15.7524632 71.2894979,15.5986105 71.2829872,15.4307368 C71.2374128,14.1836211 71.0520511,12.0918316 70.6993277,11.1175579 C70.3205617,10.0633263 69.7752,9.12997895 69.0781787,8.34442105 C68.3815404,7.55658947 67.5137106,6.93018947 66.5014979,6.48113684 C66.4911574,6.47658947 66.4792851,6.47317895 66.4689447,6.46863158 C66.2782213,6.38564211 66.0809872,6.31174737 65.8803064,6.24467368 C65.8416255,6.23178947 65.8037106,6.21738947 65.7646468,6.20488421 C65.5609021,6.14046316 65.3514128,6.08589474 65.1380936,6.03776842 C65.095583,6.02829474 65.0534553,6.01806316 65.0109447,6.00934737 C64.789966,5.96311579 64.5640085,5.92635789 64.3338383,5.89755789 C64.3016681,5.89338947 64.2694979,5.8896 64.2369447,5.88581053 C63.9914553,5.85776842 63.7406043,5.83882105 63.4851574,5.83048421 C63.4809447,5.83048421 63.4767319,5.82972632 63.4721362,5.82934737 C64.2576255,5.81418947 64.9856681,5.73423158 65.6336681,5.58227368 C66.3467745,5.41553684 66.9583915,5.18021053 67.4509021,4.88084211 C67.9441787,4.5792 68.3103064,4.21768421 68.586434,3.83911579 C69.3826468,2.74585263 70.3653702,0.333473684 70.423583,0.0488842105 L70.4339234,0 L67.5286468,0.159157895 L67.5186894,0.169389474 C67.4202638,0.267157895 67.1261362,2.65604211 66.6370723,3.61932632 C66.4704766,3.94711579 66.2494979,4.24837895 65.941966,4.49734737 C65.6325191,4.7448 65.238434,4.9248 64.789966,5.08623158 C64.1906043,5.30223158 63.1044766,5.25486316 61.7843489,5.53755789 C61.0758383,5.68951579 60.4132851,5.95629474 59.9556255,6.17191579 C59.3149021,6.47355789 58.3693277,7.20871579 57.6937532,7.84269474 C57.6612,7.87338947 57.6297957,7.90522105 57.5976255,7.93629474 C57.4069021,8.12008421 57.2376255,8.29477895 57.1139234,8.44218947 C57.0943915,8.46568421 57.0775404,8.49221053 57.0580085,8.51608421 C56.4080936,9.29216842 55.8994979,10.2027789 55.5494553,11.2278316 C55.5479234,11.2327579 55.5460085,11.2369263 55.5444766,11.2414737 L55.5444766,11.2418526 L55.5440936,11.2418526 C55.4372426,11.5567579 55.3464766,11.9917895 55.2717957,12.4791158 C55.1438809,13.3124211 55.0634553,14.2995789 55.0332,15.1105263 C55.0220936,15.4076211 55.0174979,15.6808421 55.0197957,15.9142737 C55.0224766,16.2075789 55.0370298,16.4974737 55.0623064,16.7835789 C55.0626894,16.7892632 55.0626894,16.7953263 55.0630723,16.8010105 C55.0726468,16.9067368 55.0914128,17.0090526 55.1036681,17.1136421 C55.194434,17.8764632 55.357583,18.6135158 55.6076681,19.3092632 C55.6501787,19.4274947 55.7022638,19.5385263 55.7493702,19.6533474 C56.1193277,20.5647158 56.6106894,21.3836211 57.228817,22.0820211 C57.7714979,22.6951579 58.4194979,23.2067368 59.155966,23.6152421 C59.3666043,23.7323368 59.5814553,23.8433684 59.8066468,23.9430316 C60.3627319,24.1889684 60.9640085,24.3648 61.6020511,24.4731789 C62.0980085,24.5576842 62.6157957,24.6027789 63.1554128,24.6027789 L63.2369872,24.6024 C63.8995404,24.5967158 64.5280085,24.5300211 65.1204766,24.4030737 C66.1077957,24.1923789 66.9947745,23.8138105 67.7710723,23.2711579 C68.6546043,22.6530947 69.5159234,21.9440842 70.1972426,20.9493474 C70.3990723,20.6552842 70.5867319,20.3392421 70.7525617,19.9894737 L70.7521787,19.9894737 L70.7521787,19.9890947 L67.6006468,19.9890947 L67.6006468,19.9894737 L67.6006468,19.9894737 C67.0840085,21.0626526 66.7056255,21.6022737 65.9396681,22.3453895 C65.2143064,23.0487158 64.3265617,23.3954526 63.1914128,23.4053053 C62.3492426,23.4049263 61.6392,23.1881684 61.0226043,22.7421474 C60.8950723,22.6489263 60.7740511,22.5466105 60.6545617,22.4424 C60.1754553,22.0266947 59.7576255,21.5287579 59.4152426,20.9485895 C59.353966,20.8458947 59.2907745,20.7295579 59.227583,20.6064 C58.938434,20.0436632 58.6458383,19.3202526 58.5328596,18.9265263 C58.5091149,18.8442947 58.4922638,18.7749474 58.4861362,18.7264421 C58.4681362,18.5862316 58.4620085,18.4513263 58.4608596,18.3186947 C58.4562638,17.8461474 58.5558383,17.4255158 58.7733702,17.1003789 C58.8480511,16.9885895 58.9334553,16.8904421 59.0269021,16.8040421 C59.6814128,16.1992421 60.7257957,16.1700632 61.1723489,16.1700632 L71.2967745,16.1700632 L71.2967745,16.1700632 L71.2967745,16.1700632 L71.2956255,16.0237895 Z M105.855626,11.4193516 C106.085413,10.5830147 106.418604,9.82853053 106.846391,9.17636211 C107.272647,8.52343579 107.795413,7.99556211 108.399753,7.60638316 C108.995668,7.22250947 109.70686,7.02507789 110.513413,7.01939368 L110.552477,7.01901474 C111.324179,7.01901474 112.020051,7.20469895 112.620562,7.57189895 C113.240987,7.95160421 113.772945,8.47000421 114.200349,9.11269895 C114.632732,9.76410947 114.975498,10.5148042 115.218689,11.3424253 C115.435455,12.0881937 115.571413,13.8908463 115.618902,14.8927832 L105.501753,14.9753937 C105.531243,13.9454147 105.656094,12.1537516 105.855626,11.4193516 M118.182562,19.9892463 L115.030264,19.9892463 C114.513626,21.0624253 114.135626,21.6024253 113.369668,22.3451621 C112.644306,23.0484884 111.756562,23.3956042 110.621413,23.4058358 C109.779243,23.4054568 109.0692,23.18832 108.452221,22.74192 C107.814179,22.2769516 107.273413,21.6740463 106.844477,20.9483621 C106.446945,20.2802779 105.958647,19.0596884 105.916136,18.7262147 C105.834179,18.0865516 105.924179,17.5166147 106.202987,17.1005305 C106.800434,16.2081095 108.091838,16.1702147 108.601966,16.1702147 L118.726774,16.1702147 L118.724094,15.8848674 C118.714519,14.7700042 118.52954,12.2276463 118.129328,11.1188463 C117.750945,10.0653726 117.205966,9.13240421 116.508562,8.34495158 C115.80886,7.55636211 114.942179,6.92996211 113.931115,6.48204632 C112.942264,6.04474105 111.814009,5.82267789 110.578519,5.82267789 L110.502689,5.82305684 C109.236562,5.83366737 108.08686,6.07392 107.085753,6.53737263 C106.081583,7.00158316 105.226009,7.64276211 104.54354,8.44347789 C103.862221,9.23775158 103.334094,10.1801937 102.974094,11.2420042 C102.61754,12.2916884 102.43754,14.67072 102.449413,15.9140463 L102.449796,15.9140463 C102.460902,17.1122779 102.658519,18.2544253 103.037285,19.3090358 C103.416817,20.3628884 103.962562,21.2954779 104.658817,22.0817937 C105.356221,22.8703832 106.224051,23.4964042 107.236264,23.9428042 C108.225115,24.3808674 109.351838,24.6025516 110.585413,24.6025516 L110.666604,24.6021726 C112.433668,24.5873937 113.959072,24.1390989 115.200689,23.2713095 C116.345796,22.4702147 117.4572,21.5217095 118.182562,19.9892463 M145.89383,14.9754695 C145.923319,13.9451116 146.04817,12.1538274 146.247702,11.4194274 C146.477106,10.5830905 146.810298,9.82822737 147.238468,9.17643789 C147.664723,8.52351158 148.187489,7.99563789 148.79183,7.60645895 C149.387745,7.22258526 150.098936,7.02515368 150.905106,7.01946947 L150.94417,7.01909053 C151.716255,7.01909053 152.412128,7.20477474 153.012638,7.57197474 C153.633064,7.95168 154.164638,8.47008 154.592426,9.11277474 C155.024426,9.76380632 155.367574,10.5145011 155.610766,11.3425011 C155.827149,12.0882695 155.963489,13.8909221 156.010979,14.8928589 L145.89383,14.9754695 Z M148.994043,16.1702905 L159.118851,16.1702905 L159.11617,15.8845642 C159.106213,14.77008 158.921617,12.2277221 158.521021,11.1189221 C158.143021,10.0650695 157.59766,9.13248 156.900638,8.34464842 C156.200936,7.55643789 155.334255,6.93003789 154.323191,6.48174316 C153.33434,6.04481684 152.205702,5.82275368 150.970596,5.82275368 L150.894766,5.82313263 C149.628638,5.83374316 148.478553,6.07399579 147.477447,6.53706947 C146.47366,7.00165895 145.618085,7.64283789 144.935617,8.44317474 C144.254298,9.23782737 143.72617,10.1798905 143.36617,11.24208 C143.009617,12.2917642 142.829617,14.6707958 142.841489,15.9141221 L142.841872,15.9141221 C142.852979,17.1123537 143.050596,18.2545011 143.429362,19.3091116 C143.808894,20.3625853 144.354255,21.2955537 145.050511,22.0818695 C145.748298,22.87008 146.616128,23.4961011 147.62834,23.94288 C148.617191,24.3809432 149.743915,24.6026274 150.977489,24.6026274 L151.058681,24.6022484 C152.825362,24.5870905 154.351149,24.1391747 155.592766,23.2713853 C156.737872,22.4702905 157.849277,21.5217853 158.574255,19.9893221 L155.42234,19.9893221 C154.905702,21.0625011 154.527319,21.6021221 153.761745,22.3452379 C153.036383,23.0485642 152.148255,23.39568 151.013489,23.4055326 C150.170936,23.4055326 149.461277,23.1883958 148.844298,22.7419958 C148.206255,22.2770274 147.665489,21.6737432 147.236553,20.9484379 C146.839021,20.2803537 146.350723,19.0597642 146.30783,18.7262905 C146.225872,18.0866274 146.316255,17.5166905 146.595064,17.1002274 C147.192128,16.2081853 148.483532,16.1702905 148.994043,16.1702905 L148.994043,16.1702905 Z M72.2412766,32.0308674 C72.2412766,31.2866147 71.8065957,30.8648463 71.0042553,30.8648463 L69.4914894,30.8648463 L69.4914894,33.2052253 L70.920766,33.2052253 C71.8150213,33.2052253 72.2412766,32.7997516 72.2412766,32.0308674 M72.8931064,32.0062358 C72.8931064,33.1552042 72.0823404,33.7922147 70.9123404,33.7922147 L69.4914894,33.7922147 L69.4914894,36.0662779 L68.8400426,36.0662779 L68.8400426,30.2778568 L71.0295319,30.2778568 C72.090766,30.2778568 72.8931064,30.8318779 72.8931064,32.0062358 M77.7212043,31.97304 C77.7212043,31.2617558 77.3033745,30.8979663 76.5263106,30.8979663 L74.8879277,30.8979663 L74.8879277,33.0564505 L76.4424383,33.0564505 C77.3118,33.0564505 77.7212043,32.7006189 77.7212043,31.97304 M78.373034,31.9484084 C78.373034,32.8495453 77.8299702,33.4119032 76.9943106,33.58584 L78.2811191,36.0993979 L77.5289489,36.0993979 L76.2754596,33.6351032 L74.8879277,33.6351032 L74.8879277,36.0993979 L74.2364809,36.0993979 L74.2364809,30.3109768 L76.5512043,30.3109768 C77.5791191,30.3109768 78.373034,30.8320295 78.373034,31.9484084 M83.7869745,33.1802905 C83.7869745,31.7251326 83.0099106,30.7739747 81.9900383,30.7739747 C80.9789745,30.7739747 80.2352298,31.70808 80.2352298,33.1639958 C80.2352298,34.6191537 81.0042511,35.5703116 82.0237404,35.5703116 C83.0348043,35.5703116 83.7869745,34.6354484 83.7869745,33.1802905 M84.4391872,33.1639958 C84.4391872,34.9086695 83.452634,36.1573011 81.9984638,36.1573011 C80.5442936,36.1573011 79.5834,34.9249642 79.5834,33.1802905 C79.5834,31.4356168 80.5611447,30.1869853 82.0153149,30.1869853 C83.4694851,30.1869853 84.4391872,31.4189432 84.4391872,33.1639958 M89.9743404,30.1622779 L87.9851489,35.9506989 L87.2666809,35.9506989 L85.2774894,30.1622779 L85.9626383,30.1622779 L87.2666809,34.1230358 C87.3834894,34.4705305 87.5673191,35.05752 87.6259149,35.2644253 C87.6845106,35.05752 87.8851915,34.44552 87.9935745,34.1067411 L89.3056596,30.1622779 L89.9743404,30.1622779 Z M94.9964936,36.06624 L91.335983,36.06624 L91.335983,30.2778189 L94.8712596,30.2778189 L94.8712596,30.8648084 L91.9878128,30.8648084 L91.9878128,32.6841347 L93.6595149,32.6841347 L93.6595149,33.2711242 L91.9878128,33.2711242 L91.9878128,35.4792505 L94.9964936,35.4792505 L94.9964936,36.06624 Z M96.5151191,36.06624 L96.5151191,30.2778189 L97.1500979,30.2778189 L99.6823532,34.3132295 C99.8079702,34.5117979 100.025119,34.8922611 100.100566,35.0408084 L100.100566,30.2778189 L100.727119,30.2778189 L100.727119,36.06624 L100.117034,36.06624 L97.5595021,32.1054821 C97.4342681,31.9069137 97.2171191,31.5264505 97.1420553,31.3779032 L97.1420553,36.06624 L96.5151191,36.06624 Z M106.128651,35.1979958 C105.702396,35.7686905 105.067417,36.1571116 104.214523,36.1571116 C102.78563,36.1571116 101.84963,34.8755116 101.84963,33.18048 C101.84963,31.4600589 102.827374,30.1867958 104.2398,30.1867958 C105.04214,30.1867958 105.6438,30.4846484 106.103374,31.1129432 L105.585204,31.5017432 C105.209502,30.9973642 104.858311,30.7741642 104.222949,30.7741642 C103.220311,30.7741642 102.50146,31.7579116 102.50146,33.1638063 C102.50146,34.5776589 103.245204,35.5701221 104.231757,35.5701221 C104.866736,35.5701221 105.301417,35.2889432 105.677119,34.8091958 L106.128651,35.1979958 Z M111.214723,36.1572253 L107.554213,36.1572253 L107.554213,30.3688042 L111.089489,30.3688042 L111.089489,30.9557937 L108.206043,30.9557937 L108.206043,32.77512 L109.877745,32.77512 L109.877745,33.3621095 L108.206043,33.3621095 L108.206043,35.5702358 L111.214723,35.5702358 L111.214723,36.1572253 Z" id="logoVG"></path>
</g>
</g>
</g>
</g>
</svg>